<svg width="17" height="13" viewBox="0 0 17 13" fill="none" xmlns="http://www.w3.org/2000/svg">
<path d="M1.73047 5.34575C1.28864 5.34575 0.930469 5.70392 0.930469 6.14575C0.930469 6.58758 1.28864 6.94575 1.73047 6.94575L1.73047 5.34575ZM16.2962 6.71144C16.6086 6.39902 16.6086 5.89249 16.2962 5.58007L11.205 0.488899C10.8926 0.176479 10.386 0.176479 10.0736 0.488899C9.7612 0.801318 9.7612 1.30785 10.0736 1.62027L14.5991 6.14575L10.0736 10.6712C9.76119 10.9837 9.76119 11.4902 10.0736 11.8026C10.386 12.115 10.8926 12.115 11.205 11.8026L16.2962 6.71144ZM1.73047 6.94575L15.7305 6.94575L15.7305 5.34575L1.73047 5.34575L1.73047 6.94575Z" fill="#171717"/>
</svg>
