<svg width="21" height="22" viewBox="0 0 21 22" fill="none" xmlns="http://www.w3.org/2000/svg">
<path d="M1.70312 5L4.70312 1H16.7031L19.7031 5M1.70312 5V19C1.70313 19.5304 1.91384 20.0391 2.28891 20.4142C2.66398 20.7893 3.17269 21 3.70312 21H17.7031C18.2336 21 18.7423 20.7893 19.1173 20.4142C19.4924 20.0391 19.7031 19.5304 19.7031 19V5M1.70312 5H19.7031M14.7031 9C14.7031 10.0609 14.2817 11.0783 13.5316 11.8284C12.7814 12.5786 11.764 13 10.7031 13C9.64226 13 8.62484 12.5786 7.8747 11.8284C7.12455 11.0783 6.70313 10.0609 6.70312 9" stroke="#171717" stroke-width="1.5" stroke-linecap="round" stroke-linejoin="round"/>
</svg>
