<svg width="24" height="20" viewBox="0 0 24 20" fill="none" xmlns="http://www.w3.org/2000/svg">
<path d="M11.8519 20C11.177 20 10.5417 19.737 10.0637 19.2595L1.8837 11.0793C0.669136 9.86469 0 8.24988 0 6.53185V6.43136C0 4.71333 0.669136 3.09827 1.8837 1.88395C3.09827 0.669629 4.71358 0 6.43086 0H6.5321C8.24938 0 9.86469 0.669136 11.0793 1.8837L11.8519 2.6563L12.6244 1.8837C13.839 0.669136 15.4543 0 17.1716 0H17.2728C18.9901 0 20.6054 0.669136 21.82 1.8837C23.0346 3.09827 23.7037 4.71309 23.7037 6.43111V6.5316C23.7037 8.24963 23.0346 9.86469 21.82 11.079L13.64 19.2593C13.162 19.737 12.5267 20 11.8519 20ZM11.1111 18.2119C11.5081 18.6081 12.1963 18.6072 12.5926 18.2116L20.7726 10.0321C21.7072 9.09679 22.2222 7.85407 22.2222 6.53185V6.43136C22.2222 5.10914 21.7072 3.86617 20.7726 2.93136C19.838 1.99654 18.5946 1.48148 17.2728 1.48148H17.1716C15.8499 1.48148 14.6064 1.99605 13.6719 2.93111L12.3756 4.22741C12.0862 4.51679 11.6175 4.51679 11.3281 4.22741L10.0319 2.93111C9.09728 1.99605 7.85383 1.48148 6.5321 1.48148H6.43086C5.10914 1.48148 3.86568 1.99605 2.93111 2.93111C1.99654 3.86617 1.48148 5.10889 1.48148 6.43111V6.5316C1.48148 7.85383 1.99654 9.09679 2.93111 10.0316L11.1111 18.2119Z" fill="#171717"/>
</svg>
