<svg width="50" height="61" viewBox="0 0 50 61" fill="none" xmlns="http://www.w3.org/2000/svg">
<path fill-rule="evenodd" clip-rule="evenodd" d="M6.90615 26.3077C6.75589 24.3994 10.119 18.9439 11.2422 16.7904C12.4669 14.4425 15.8609 10.5676 17.8642 8.60194C19.5011 6.996 21.416 5.38254 23.0473 3.74748C21.3756 4.17573 16.293 7.29653 14.7218 8.35307C9.85133 11.6298 5.54532 16.2175 3.13922 21.1941C0.428832 26.8008 -1.95097 33.2528 2.40011 39.2408C5.3049 43.2387 11.6244 46.8535 13.6727 43.4998C14.7978 41.6581 13.6596 36.2073 14.6109 33.8604C15.2467 32.292 23.8747 24.7666 26.5504 21.2542C28.0896 19.2341 29.3462 17.2741 30.3332 15.0905C31.0987 13.3982 31.7025 11.5706 32.1524 9.47536C32.6943 6.9481 33.5151 1.23995 30.1614 0.833297C26.0873 0.338365 17.9412 10.8606 15.5895 13.9898C14.5677 15.3488 12.6641 17.9127 11.8207 19.3083L9.47567 22.8479C8.74031 23.8321 7.65371 26.1687 6.90615 26.3096V26.3077ZM11.3681 40.7894C10.4702 40.9538 9.06056 39.3957 8.54309 38.8031C7.87817 38.0434 6.538 36.7567 5.69934 36.4562C6.34736 38.2716 6.35205 39.6455 7.5598 41.1735C8.17212 41.9483 9.98938 43.3233 11.4319 42.493C12.8942 41.6516 12.0762 38.2781 12.4368 35.8223C12.557 35.0024 12.8322 34.2839 12.9186 33.6331C11.6733 34.1637 10.3632 35.4654 10.0683 36.4158C9.56301 38.048 10.7858 39.6455 11.369 40.7876L11.3681 40.7894ZM7.43395 32.1821C10.0241 31.4646 11.8836 29.0247 12.8143 27.3906C13.3722 26.411 13.7713 25.27 14.1742 24.1082C14.3977 23.464 15.0777 21.0588 14.9819 20.4831C14.8504 20.6973 14.1864 21.4448 13.9573 21.7144L11.8573 24.5111C11.4375 25.0136 11.1765 25.4456 10.8008 25.964C10.2307 26.7529 9.43998 28.0292 8.96665 28.9383C8.55154 29.7366 7.55416 31.3172 7.43301 32.1812L7.43395 32.1821Z" fill="white"/>
<path fill-rule="evenodd" clip-rule="evenodd" d="M11.1858 59.7892C18.0388 61.9924 26.2066 60.4118 32.1157 58.3467C34.7049 57.4423 38.9292 55.2653 41.2658 53.7138C41.7222 53.4105 42.6051 52.9813 42.8248 52.538C38.716 52.2995 37.2096 51.6918 35.5464 48.3503C31.956 52.1154 30.8647 53.3175 26.2404 55.9537C22.2687 58.218 16.8479 59.5572 12.1015 59.6586L11.1858 59.7892Z" fill="white"/>
<path fill-rule="evenodd" clip-rule="evenodd" d="M45.368 20.5056C45.0403 21.164 44.9182 21.904 44.5547 22.6459C43.1836 26.3791 39.8289 26.2203 37.4247 27.6422C36.7307 28.1935 36.3306 28.4912 36.7532 29.6182C37.0631 30.4465 37.5975 32.0168 38.2098 32.3229C39.9998 33.2198 44.0833 33.3316 46.0658 32.2985C47.0237 31.7998 48.6701 30.2324 48.9828 29.0632C49.3942 27.5276 46.1503 21.2785 45.3671 20.5056H45.368Z" fill="white"/>
<path fill-rule="evenodd" clip-rule="evenodd" d="M49.7012 31.5818C49.2936 31.7565 48.7339 32.4458 48.2784 32.7933C47.6961 33.2366 47.2988 33.493 46.5832 33.9005C44.2898 35.2097 41.8311 34.2959 39.4926 34.8491C38.3281 35.1243 38.422 35.4239 38.5262 36.61C38.7826 39.5138 38.4549 39.3382 40.3228 40.8033C42.5853 42.5774 46.0667 42.9483 48.3122 40.8343C49.6157 39.6068 49.6711 39.1335 49.9069 36.7884C50.0665 35.206 50.0346 33.0713 49.7012 31.5818Z" fill="white"/>
<path fill-rule="evenodd" clip-rule="evenodd" d="M49.5717 42.495C46.8735 42.5439 45.5784 46.0769 38.8504 41.3342C38.4503 41.8263 38.0211 43.5347 37.7093 44.2982C36.8058 46.5118 35.6338 47.0884 37.9056 49.6016C39.3575 51.2084 41.6378 51.1681 43.5893 50.5069C44.7783 50.104 45.1333 49.7734 45.9522 48.8296C46.9449 47.6848 48.9227 44.0315 49.5717 42.496V42.495Z" fill="white"/>
<path fill-rule="evenodd" clip-rule="evenodd" d="M39.9736 14.417C39.5368 16.1056 37.5797 18.6901 36.3653 19.9871C36.0996 20.2707 35.877 20.4276 35.6215 20.7271C33.083 23.7108 33.5037 22.8459 35.3961 25.3816C35.9916 26.1789 36.1315 26.1479 37.3702 25.8803C40.553 25.1928 42.6868 23.4601 43.5141 21.0286C44.2194 18.9559 44.0166 18.4394 42.8304 17.0579C42.2134 16.3394 40.7145 14.695 39.9726 14.4179L39.9736 14.417Z" fill="white"/>
<path fill-rule="evenodd" clip-rule="evenodd" d="M29.8496 20.2171C31.1109 20.6472 32.1289 21.7582 33.1902 21.1046C35.6507 19.5878 37.9395 13.8139 37.1656 11.9967C35.9785 11.6746 35.5437 10.9599 34.4693 10.896C33.7537 12.3216 33.6729 14.0412 32.7873 15.4725L29.8496 20.2171Z" fill="white"/>
</svg>
